<?xml version="1.0" encoding="utf-8"?>
<!-- Generator: Adobe Illustrator 23.0.1, SVG Export Plug-In . SVG Version: 6.00 Build 0)  -->
<svg version="1.1" id="Layer_1" xmlns="http://www.w3.org/2000/svg" xmlns:xlink="http://www.w3.org/1999/xlink" x="0px" y="0px"
	 viewBox="0 0 459 512" style="enable-background:new 0 0 459 512;" xml:space="preserve">
<style type="text/css">
	.st0{fill:#E6AF78;}
	.st1{fill:#EFF2FA;}
	.st2{fill:#D29B6E;}
	.st3{fill:#F0C087;}
	.st4{fill:#E4EAF6;}
	.st5{fill:#E83131;}
	.st6{fill:#A51111;}
	.st7{fill:#785550;}
	.st8{fill:#694B4B;}
	.st9{fill:#5A4146;}
</style>
<g>
	<polygon class="st0" points="308.9,361.9 308.9,300.1 150.1,300.1 150.1,361.9 229.5,432.6 	"/>
	<path class="st1" d="M431.8,390.8l-109.2-25.7c-1.6-0.4-3.2-1-4.6-1.8l-88.5,51.6l-85-54.1c-2.2,2.1-4.9,3.6-8,4.3L27.2,390.8
		C11.3,394.6,0,408.8,0,425.2v69.1c0,9.8,7.9,17.7,17.7,17.7h423.7c9.8,0,17.7-7.9,17.7-17.7v-69.1
		C459,408.8,447.7,394.6,431.8,390.8z"/>
	<path class="st2" d="M150.1,300.1v65.2c100.1,36.1,158.9-54.2,158.9-54.2v-11L150.1,300.1L150.1,300.1z"/>
	<path class="st3" d="M114.8,97.1l7.7,169.2c0.7,15.8,8.5,30.5,21.1,40l36.5,27.4c9.2,6.9,20.3,10.6,31.8,10.6h35.3
		c11.5,0,22.6-3.7,31.8-10.6l36.5-27.4c12.7-9.5,20.4-24.2,21.1-40l7.7-169.2C344.3,97.1,114.8,97.1,114.8,97.1z"/>
	<path class="st0" d="M203,132.4c35.3,0,88.3-8.8,100.8-35.3H114.8l7.7,169.2c0.7,15.8,8.5,30.5,21.1,40l36.5,27.4
		c9.2,6.9,20.3,10.6,31.8,10.6h17.7c-17.7,0-53-35.3-53-79.4c0-21.6,0-79.4,0-105.9C176.5,150.1,185.4,132.4,203,132.4z"/>
	<g>
		<path class="st4" d="M64.8,454.7L7.6,403.3C2.8,409.4,0,417,0,425.2v69.1c0,9.8,7.9,17.7,17.7,17.7h61.8v-24.5
			C79.4,475,74.1,463.1,64.8,454.7z"/>
		<path class="st4" d="M394.2,454.7l57.2-51.4c4.8,6.1,7.6,13.7,7.6,21.9v69.1c0,9.8-7.9,17.7-17.7,17.7h-61.8v-24.5
			C379.6,475,384.9,463.1,394.2,454.7z"/>
	</g>
	<polygon class="st5" points="251.6,512 207.4,512 213,432.6 246.1,432.6 	"/>
	<path class="st6" d="M251.6,414.9h-44.1v16.6c0,5.5,4.4,9.9,9.9,9.9h24.4c5.5,0,9.9-4.4,9.9-9.9L251.6,414.9L251.6,414.9z"/>
	<g>
		<path class="st4" d="M148.8,342.3l80.7,72.6c0,0-22.6,11.4-50.5,34.4c-5.8,4.7-14.5,2.8-17.5-4l-37.9-83.4l12-18
			C138.6,339.5,144.8,338.7,148.8,342.3z"/>
		<path class="st4" d="M310.2,342.3l-80.7,72.6c0,0,22.6,11.4,50.5,34.4c5.8,4.7,14.5,2.8,17.5-4l37.9-83.4l-12-18
			C320.5,339.5,314.2,338.7,310.2,342.3z"/>
	</g>
	<path class="st7" d="M283,38.6l8.3,58.5c37.8,7.6,43.2,66.8,44,83.8c0.1,3.1,1.1,6,2.8,8.6l14.4,22.4c0,0-4.9-37,17.7-61.8
		C370.2,150.1,377.9,3.3,283,38.6z"/>
	<path class="st3" d="M361.4,208.1l-10,39.9c-1.2,4.7-5.4,8-10.3,8l0,0c-5.4,0-9.9-4-10.5-9.3l-5.1-40.8
		c-1.4-10.9,7.1-20.6,18.1-20.6h0C355.5,185.4,364.2,196.6,361.4,208.1z"/>
	<path class="st8" d="M123.2,22.8l13.1,8.9c-59,43.6-48,118.3-48,118.3c17.7,17.7,17.7,61.8,17.7,61.8l17.7-17.7
		c0,0-6.8-51,26.5-70.6c30.9-18.2,57.9-8.8,85.5-8.8c73.9,0,94.6-27.9,91-61.8c-1.9-17.6-28.7-54.1-97.1-53
		C201.9,0.5,150.1,8.9,123.2,22.8z"/>
	<path class="st9" d="M118.1,107.1c0,0-9.4-37,18.2-75.3c-59,43.6-48,118.3-48,118.3c17.7,17.7,17.7,61.8,17.7,61.8l17.7-17.7
		c0,0-6.8-51,26.5-70.6c30.9-18.2,57.9-8.8,85.5-8.8c12,0,22.5-0.8,31.8-2.2C210.5,114.5,176.9,71.4,118.1,107.1z"/>
	<path class="st0" d="M97.7,208.1l10,39.9c1.2,4.7,5.4,8,10.3,8l0,0c5.4,0,9.9-4,10.5-9.3l5.1-40.8c1.4-10.9-7.1-20.6-18.1-20.6h0
		C103.5,185.4,94.8,196.6,97.7,208.1z"/>
	<path class="st4" d="M344.3,494.3h-61.8c-4.9,0-8.8,4-8.8,8.8v8.8h79.4v-8.8C353.1,498.3,349.1,494.3,344.3,494.3z"/>
</g>
</svg>
