<?xml version="1.0" encoding="utf-8"?>
<!-- Generator: Adobe Illustrator 23.0.1, SVG Export Plug-In . SVG Version: 6.00 Build 0)  -->
<svg version="1.1" id="Layer_1" xmlns="http://www.w3.org/2000/svg" xmlns:xlink="http://www.w3.org/1999/xlink" x="0px" y="0px"
	 viewBox="0 0 370.8 512" style="enable-background:new 0 0 370.8 512;" xml:space="preserve">
<style type="text/css">
	.st0{fill:#E1C3A0;}
	.st1{fill:#EFF2FA;}
	.st2{fill:#FF7070;}
	.st3{fill:#BA2121;}
	.st4{fill:#A70A0A;}
	.st5{opacity:0.97;}
</style>
<g>
	<path class="st0" d="M335.4,512H35.3C15.8,512,0,496.2,0,476.7V70.6c0-19.5,15.8-35.3,35.3-35.3h300.1c19.5,0,35.3,15.8,35.3,35.3
		v406.1C370.8,496.2,354.9,512,335.4,512z"/>
	<path class="st1" d="M335.4,485.5H35.3c-4.9,0-8.8-4-8.8-8.8V70.6c0-4.9,4-8.8,8.8-8.8h300.1c4.9,0,8.8,4,8.8,8.8v406.1
		C344.3,481.6,340.3,485.5,335.4,485.5z"/>
	<path class="st2" d="M238.3,35.3h-26.5v-8.8C211.9,11.9,200,0,185.4,0s-26.5,11.9-26.5,26.5v8.8h-26.5c-9.8,0-17.7,7.9-17.7,17.7
		v17.7H256V53C256,43.2,248.1,35.3,238.3,35.3z M185.4,35.3c-4.9,0-8.8-4-8.8-8.8s4-8.8,8.8-8.8s8.8,4,8.8,8.8
		S190.3,35.3,185.4,35.3z"/>
	<path class="st3" d="M256,79.4H114.8c-4.9,0-8.8-4-8.8-8.8l0,0c0-4.9,4-8.8,8.8-8.8H256c4.9,0,8.8,4,8.8,8.8l0,0
		C264.8,75.5,260.9,79.4,256,79.4z"/>
	<path class="st4" d="M97.1,203c-2.3,0-4.5-0.9-6.2-2.6L64.4,174c-3.4-3.4-3.4-9,0-12.5s9-3.4,12.5,0l20.2,20.2l37.9-37.9
		c3.4-3.4,9-3.4,12.5,0s3.4,9,0,12.5l-44.1,44.1C101.6,202.2,99.4,203,97.1,203z"/>
	<g class="st5">
		<path class="st3" d="M247.2,167.7h-70.6c-4.9,0-8.8-4-8.8-8.8l0,0c0-4.9,4-8.8,8.8-8.8h70.6c4.9,0,8.8,4,8.8,8.8l0,0
			C256,163.8,252,167.7,247.2,167.7z"/>
	</g>
	<g class="st5">
		<path class="st2" d="M291.3,203H176.6c-4.9,0-8.8-4-8.8-8.8l0,0c0-4.9,4-8.8,8.8-8.8h114.8c4.9,0,8.8,4,8.8,8.8l0,0
			C300.1,199.1,296.2,203,291.3,203z"/>
	</g>
	<path class="st4" d="M97.1,414.9c-2.3,0-4.5-0.9-6.2-2.6l-26.5-26.5c-3.4-3.4-3.4-9,0-12.5s9-3.4,12.5,0l20.2,20.2l37.9-37.9
		c3.4-3.4,9-3.4,12.5,0s3.4,9,0,12.5l-44.1,44.1C101.6,414,99.4,414.9,97.1,414.9z"/>
	<g class="st5">
		<path class="st3" d="M247.2,379.6h-70.6c-4.9,0-8.8-4-8.8-8.8l0,0c0-4.9,4-8.8,8.8-8.8h70.6c4.9,0,8.8,4,8.8,8.8l0,0
			C256,375.6,252,379.6,247.2,379.6z"/>
	</g>
	<g class="st5">
		<path class="st2" d="M291.3,414.9H176.6c-4.9,0-8.8-4-8.8-8.8l0,0c0-4.9,4-8.8,8.8-8.8h114.8c4.9,0,8.8,4,8.8,8.8l0,0
			C300.1,410.9,296.2,414.9,291.3,414.9z"/>
	</g>
	<path class="st4" d="M97.1,309c-2.3,0-4.5-0.9-6.2-2.6l-26.5-26.5c-3.4-3.4-3.4-9,0-12.5s9-3.4,12.5,0l20.2,20.2l37.9-37.9
		c3.4-3.4,9-3.4,12.5,0s3.4,9,0,12.5l-44.1,44.1C101.6,308.1,99.4,309,97.1,309z"/>
	<g class="st5">
		<path class="st3" d="M247.2,273.7h-70.6c-4.9,0-8.8-4-8.8-8.8l0,0c0-4.9,4-8.8,8.8-8.8h70.6c4.9,0,8.8,4,8.8,8.8l0,0
			C256,269.7,252,273.7,247.2,273.7z"/>
	</g>
	<g class="st5">
		<path class="st2" d="M291.3,309H176.6c-4.9,0-8.8-4-8.8-8.8l0,0c0-4.9,4-8.8,8.8-8.8h114.8c4.9,0,8.8,4,8.8,8.8l0,0
			C300.1,305,296.2,309,291.3,309z"/>
	</g>
</g>
</svg>
