<?xml version="1.0" encoding="utf-8"?>
<!-- Generator: Adobe Illustrator 23.0.1, SVG Export Plug-In . SVG Version: 6.00 Build 0)  -->
<svg version="1.1" id="Layer_1" xmlns="http://www.w3.org/2000/svg" xmlns:xlink="http://www.w3.org/1999/xlink" x="0px" y="0px"
	 viewBox="0 0 503.3 173.6" style="enable-background:new 0 0 503.3 173.6;" xml:space="preserve">
<style type="text/css">
	.st0{fill:#CE4C4C;}
	.st1{fill:#8D8A94;}
	.st2{fill:#A7A5AC;}
	.st3{fill:#504B5A;}
	.st4{fill:#DCDBDE;}
	.st5{fill:#B9B7BD;}
	.st6{fill:#FF6868;}
	.st7{fill:#625D6B;}
	.st8{fill:#E83131;}
</style>
<g>
	<path class="st0" d="M468.6,34.7V21.5c0-2-1.3-3.8-3.2-4.5L422.8,2.8c-3.1-1-6.2,1.3-6.2,4.5v27.4H468.6z"/>
	<path class="st1" d="M147.5,156.2H26c-4.8,0-8.7-3.9-8.7-8.7v-17.4h130.2V156.2z"/>
	<path class="st2" d="M226.1,138.8H8.7c-4.8,0-8.7-3.9-8.7-8.7v-17.4h286.4l-44.7,22.4C236.8,137.6,231.5,138.8,226.1,138.8z"/>
	<circle class="st3" cx="130.2" cy="147.5" r="26"/>
	<circle class="st4" cx="130.2" cy="147.5" r="13"/>
	<circle class="st3" cx="78.1" cy="147.5" r="26"/>
	<circle class="st4" cx="78.1" cy="147.5" r="13"/>
	<rect x="312.4" y="121.5" class="st5" width="190.9" height="34.7"/>
	<circle class="st3" cx="364.5" cy="147.5" r="26"/>
	<circle class="st4" cx="364.5" cy="147.5" r="13"/>
	<circle class="st3" cx="312.4" cy="147.5" r="26"/>
	<circle class="st4" cx="312.4" cy="147.5" r="13"/>
	<path class="st6" d="M503.3,138.8h-43.4v-17.4h-43.4V26H487c4.4,0,8.1,3.3,8.6,7.6l6.1,48.4c1.1,8.9,1.7,17.9,1.7,26.9L503.3,138.8
		L503.3,138.8z"/>
	<rect x="459.9" y="121.5" class="st0" width="43.4" height="17.4"/>
	<circle class="st3" cx="459.9" cy="147.5" r="26"/>
	<circle class="st4" cx="459.9" cy="147.5" r="13"/>
	<g>
		<path class="st0" d="M459.9,43.4h-21.7c-2.4,0-4.3,1.9-4.3,4.3v25.2c0,3.1,2.1,5.7,5.1,6.4l20.9,4.7V43.4z"/>
		<path class="st0" d="M501.6,82.1l-4.8-38.7h-58.6c-2.4,0-4.3,1.9-4.3,4.3v25.2c0,3.1,2.1,5.7,5.1,6.4l63.7,14.2
			C502.4,89.6,502.1,85.8,501.6,82.1z"/>
	</g>
	<path class="st7" d="M459.9,83.9l42.8,9.5c-0.3-3.8-0.6-7.6-1.1-11.3l-4.8-38.7h-36.9V83.9z"/>
	<path class="st8" d="M0,0h399.2c4.8,0,8.7,3.9,8.7,8.7v104.1c0,4.8-3.9,8.7-8.7,8.7H0c-4.8,0-8.7-3.9-8.7-8.7V8.7
		C-8.7,3.9-4.8,0,0,0z"/>
	<path class="st6" d="M381.8,104.1H17.4c-4.8,0-8.7-3.9-8.7-8.7l0,0c0-4.8,3.9-8.7,8.7-8.7h364.5c4.8,0,8.7,3.9,8.7,8.7l0,0
		C390.5,100.2,386.6,104.1,381.8,104.1z"/>
</g>
</svg>
