<?xml version="1.0" encoding="utf-8"?>
<!-- Generator: Adobe Illustrator 23.0.1, SVG Export Plug-In . SVG Version: 6.00 Build 0)  -->
<svg version="1.1" id="Layer_1" xmlns="http://www.w3.org/2000/svg" xmlns:xlink="http://www.w3.org/1999/xlink" x="0px" y="0px"
	 viewBox="0 0 512 353.1" style="enable-background:new 0 0 512 353.1;" xml:space="preserve">
<style type="text/css">
	.st0{fill:#B4E1FA;}
	.st1{fill:#707487;}
	.st2{fill:#5B5D6E;}
	.st3{fill:#E83131;}
	.st4{fill:#464655;}
	.st5{fill:#C7CFE2;}
	.st6{fill:#AFB9D2;}
	.st7{fill:#FF7070;}
	.st8{fill:#959CB3;}
</style>
<g>
	<polygon class="st0" points="441.4,141.2 344.3,141.2 344.3,53 423.7,53 	"/>
	<path class="st1" d="M17.7,291.3h476.7c4.9,0,8.8-4,8.8-8.8v-61.8H8.8v61.8C8.8,287.4,12.8,291.3,17.7,291.3z"/>
	<polygon class="st2" points="344.3,220.7 344.3,79.4 309,79.4 309,220.7 8.8,220.7 8.8,256 503.2,256 503.2,220.7 	"/>
	<g>
		<path class="st3" d="M8.8,0H309c4.9,0,8.8,4,8.8,8.8v211.9c0,4.9-4,8.8-8.8,8.8H8.8c-4.9,0-8.8-4-8.8-8.8V8.8C0,4,4,0,8.8,0z"/>
		<path class="st3" d="M490.4,146.4l-41.2-11.8l-12.8-70.3c-3.1-16.8-17.7-29-34.7-29h-57.3c-4.9,0-8.8,3.9-8.8,8.8V203h167.7v-39.6
			C503.2,155.5,497.9,148.6,490.4,146.4z M370.8,132.4c-9.8,0-17.7-7.9-17.7-17.7V70.6c0-4.9,4-8.8,8.8-8.8h48.8
			c4.3,0,7.9,3.1,8.7,7.3l10.3,57.3c0.6,3.2-1.9,6.1-5.1,6.1L370.8,132.4L370.8,132.4z"/>
	</g>
	<circle class="st4" cx="414.9" cy="300.1" r="53"/>
	<circle class="st5" cx="414.9" cy="300.1" r="35.3"/>
	<circle class="st6" cx="414.9" cy="300.1" r="13.2"/>
	<circle class="st4" cx="88.3" cy="300.1" r="53"/>
	<circle class="st5" cx="88.3" cy="300.1" r="35.3"/>
	<circle class="st6" cx="88.3" cy="300.1" r="13.2"/>
	<path class="st7" d="M344.3,282.5h3.4c3.3,0,6.4-1.9,7.9-4.9l19.2-38.3c3-6,9.1-9.8,15.8-9.8h48.8c6.7,0,12.8,3.8,15.8,9.8
		l19.2,38.3c1.5,3,4.6,4.9,7.9,4.9h21c4.9,0,8.8-4,8.8-8.8v-61.8c0-9.8-7.9-17.7-17.7-17.7H335.4v79.4
		C335.4,278.5,339.4,282.5,344.3,282.5z"/>
	<path class="st6" d="M309,309h-88.3c-4.9,0-8.8-4-8.8-8.8v-35.3c0-4.9,4-8.8,8.8-8.8H309c4.9,0,8.8,4,8.8,8.8v35.3
		C317.8,305,313.8,309,309,309z"/>
	<g>
		<path class="st8" d="M247.2,273.7L247.2,273.7c-4.9,0-8.8,4-8.8,8.8V309H256v-26.5C256,277.6,252,273.7,247.2,273.7z"/>
		<path class="st8" d="M282.5,273.7L282.5,273.7c-4.9,0-8.8,4-8.8,8.8V309h17.7v-26.5C291.3,277.6,287.4,273.7,282.5,273.7z"/>
	</g>
	<path class="st7" d="M291.3,211.9H26.5c-4.9,0-8.8-4-8.8-8.8l0,0c0-4.9,4-8.8,8.8-8.8h264.8c4.9,0,8.8,4,8.8,8.8l0,0
		C300.1,207.9,296.2,211.9,291.3,211.9z"/>
</g>
</svg>
